# xmcd
#
# Track frame offsets:
#	150
#	13601
#	27667
#	40333
#	59393
#	72276
#	88676
#	102980
#	117470
#	131246
#	147082
#	164334
#	178442
#	194091
#	207431
#	221441
#
# Disc length: 3141 seconds
#
# Revision: 2
# Processed by: cddbd v1.5.2PL0 Copyright (c) Steve Scherf et al.
# Submitted via: FreeRIP 2.12
#
DISCID=000c4310
DTITLE=Rod Stewart - As Time Goes By... the Great American Songbook Volume 2
DYEAR=2003
DGENRE=
TTITLE0=Time After Time
TTITLE1=I'm in the Mood for Love
TTITLE2=Don't Get Around Much Anymore
TTITLE3=Bewitched, Bothered and Bewildered (With Cher)
TTITLE4='till There Was You
TTITLE5=Until the Real Thing Comes Along
TTITLE6=Where or When
TTITLE7=Smile
TTITLE8=My Heart Stood Still
TTITLE9=Someone to Watch Over Me
TTITLE10=As Time Goes by (With Queen Latifah)
TTITLE11=I Only Have Eyes for You
TTITLE12=Crazy She Calls Me
TTITLE13=Our Love is Here to Stay
TTITLE14=I Only Have Eyes for You (With Ana Belén. Spanish/English)
TTITLE15=I Only Have Eyes for You (With Ana Belén)
EXTD=
EXTT0=
EXTT1=
EXTT2=
EXTT3=
EXTT4=
EXTT5=
EXTT6=
EXTT7=
EXTT8=
EXTT9=
EXTT10=
EXTT11=
EXTT12=
EXTT13=
EXTT14=
EXTT15=
PLAYORDER=
